<?xml version="1.0" standalone="no"?>
<!DOCTYPE svg PUBLIC "-//W3C//DTD SVG 20010904//EN"
 "http://www.w3.org/TR/2001/REC-SVG-20010904/DTD/svg10.dtd">
<svg version="1.0" xmlns="http://www.w3.org/2000/svg"
 width="500.000000pt" height="500.000000pt" viewBox="0 0 500.000000 500.000000"
 preserveAspectRatio="xMidYMid meet">

<g transform="translate(0.000000,500.000000) scale(0.100000,-0.100000)"
fill="#000000" stroke="none">
<path d="M3848 2778 c5 -7 12 -22 15 -33 4 -16 5 -14 6 6 1 17 -5 29 -15 33
-13 5 -14 3 -6 -6z"/>
<path d="M678 2773 l-48 -4 0 -325 0 -324 60 0 60 0 0 120 0 120 59 0 59 0 68
-120 69 -120 72 0 72 0 -30 53 c-17 28 -39 63 -48 77 -10 14 -29 46 -44 71
l-26 46 48 30 c133 83 118 299 -26 360 -36 14 -254 25 -345 16z m277 -117 c70
-30 86 -115 30 -163 -24 -21 -37 -23 -131 -23 l-104 0 0 93 c0 52 3 97 7 100
12 13 163 7 198 -7z"/>
<path d="M3882 2735 c0 -16 2 -22 5 -12 2 9 2 23 0 30 -3 6 -5 -1 -5 -18z"/>
<path d="M3816 2723 c-6 -14 -5 -15 5 -6 7 7 10 15 7 18 -3 3 -9 -2 -12 -12z"/>
<path d="M3824 2699 c-3 -6 -2 -15 3 -20 5 -5 9 -1 9 11 0 23 -2 24 -12 9z"/>
<path d="M3865 2670 c-3 -6 1 -7 9 -4 18 7 21 14 7 14 -6 0 -13 -4 -16 -10z"/>
<path d="M1365 2586 c-85 -40 -127 -100 -140 -202 -14 -101 40 -205 129 -249
70 -35 179 -35 254 0 29 13 55 31 58 39 3 8 -6 28 -21 44 l-26 29 -46 -24
c-57 -28 -117 -30 -161 -3 -34 21 -75 78 -66 92 3 4 87 8 186 8 l181 0 -5 63
c-9 105 -62 182 -147 212 -64 22 -137 19 -196 -9z m162 -83 c34 -16 73 -64 73
-90 0 -10 -32 -13 -125 -13 -137 0 -140 2 -111 59 16 31 67 60 104 61 13 0 40
-8 59 -17z"/>
<path d="M1905 2598 c-77 -27 -128 -114 -105 -182 17 -53 62 -82 165 -106 96
-22 115 -32 115 -61 0 -62 -163 -65 -231 -3 -14 13 -19 10 -43 -26 -14 -22
-26 -42 -26 -45 0 -2 22 -16 50 -30 96 -49 230 -49 300 0 44 30 60 61 60 116
0 85 -35 114 -185 151 -57 14 -89 27 -95 39 -34 63 83 88 181 39 l37 -19 26
39 26 40 -25 16 c-60 39 -183 55 -250 32z"/>
<path d="M2427 2596 c-68 -25 -121 -81 -142 -150 -44 -143 12 -273 139 -321
84 -32 212 -14 280 39 18 15 18 16 -11 49 l-30 34 -29 -21 c-23 -17 -43 -21
-102 -21 -72 0 -74 1 -108 37 -19 21 -34 47 -34 58 0 19 6 20 186 20 l187 0
-7 58 c-15 139 -98 224 -225 229 -39 2 -81 -3 -104 -11z m149 -92 c34 -16 64
-58 64 -89 0 -13 -19 -15 -126 -15 l-126 0 7 27 c8 35 22 51 60 75 37 22 77
23 121 2z"/>
<path d="M3017 2580 l-47 -30 0 25 c0 24 -3 25 -55 25 l-55 0 0 -240 0 -240
55 0 55 0 0 139 c0 76 3 153 6 171 9 43 54 70 117 70 l47 0 0 55 0 55 -38 0
c-25 0 -54 -10 -85 -30z"/>
<path d="M3195 2583 c3 -10 24 -63 45 -118 21 -55 61 -154 88 -220 l48 -120
66 -3 65 -3 73 183 c40 101 83 209 95 241 l24 57 -62 0 -62 0 -64 -170 c-35
-93 -66 -170 -70 -170 -3 0 -33 76 -66 168 l-60 167 -64 3 c-58 3 -63 1 -56
-15z"/>
<path d="M3790 2360 l0 -240 55 0 55 0 0 240 0 240 -55 0 -55 0 0 -240z"/>
<path d="M4000 2595 c0 -6 38 -59 122 -171 21 -28 38 -54 38 -59 0 -4 -28 -46
-63 -94 -35 -47 -73 -101 -86 -118 l-22 -33 64 0 65 0 56 80 c31 44 58 80 60
80 2 0 27 -36 57 -80 l53 -80 68 0 67 0 -84 117 c-47 65 -85 123 -85 129 0 7
32 56 71 110 39 54 73 104 76 111 4 10 -10 13 -58 13 l-64 0 -49 -75 c-28 -41
-51 -75 -53 -75 -1 0 -25 34 -53 75 l-51 75 -64 0 c-36 0 -65 -2 -65 -5z"/>
</g>
</svg>
