<?xml version="1.0" encoding="UTF-8"?>
<svg version="1.1" xmlns="http://www.w3.org/2000/svg" width="500" height="500">
<path d="M0 0 C5.10451702 -0.09958538 10.20845677 -0.17180331 15.3137207 -0.21972656 C17.04689395 -0.2397241 18.78000075 -0.26693148 20.51293945 -0.30175781 C39.87133359 -0.6807877 39.87133359 -0.6807877 46 4 C51 9.34022782 51 9.34022782 51 13 C51.66 13.33 52.32 13.66 53 14 C54.59578672 20.11718241 53.71363852 25.95716942 52 32 C51.34 32.66 50.68 33.32 50 34 C49.4225 34.804375 48.845 35.60875 48.25 36.4375 C45.73277756 39.30433666 43.42100627 40.3969875 40 42 C40.5053125 42.84304688 41.010625 43.68609375 41.53125 44.5546875 C42.50578125 46.19824219 42.50578125 46.19824219 43.5 47.875 C44.47453125 49.51082031 44.47453125 49.51082031 45.46875 51.1796875 C47 54 47 54 47 56 C47.66 56 48.32 56 49 56 C49 56.99 49 57.98 49 59 C49.639375 59.2475 50.27875 59.495 50.9375 59.75 C53 61 53 61 53.75 63 C54 65 54 65 54 67 C51.3941111 67.13494246 48.79517889 67.23402299 46.1875 67.3125 C45.44951172 67.35439453 44.71152344 67.39628906 43.95117188 67.43945312 C41.79296875 67.48828125 41.79296875 67.48828125 38 67 C36.0859375 64.6796875 36.0859375 64.6796875 35 62 C32.95937666 57.67458949 32.95937666 57.67458949 30 54 C27 48.46153846 27 48.46153846 27 46 C25.515 45.505 25.515 45.505 24 45 C23.505 44.505 23.505 44.505 23 44 C20.36 44 17.72 44 15 44 C15 51.59 15 59.18 15 67 C11.45011229 67.88747193 8.85819222 68.10545467 5.25 68.0625 C4.26515625 68.05347656 3.2803125 68.04445313 2.265625 68.03515625 C1.51796875 68.02355469 0.7703125 68.01195312 0 68 C-1.41207081 65.17585838 -1.07574909 62.87155816 -1.02172852 59.71435547 C-1.01212097 59.07032776 -1.00251343 58.42630005 -0.99261475 57.76275635 C-0.95959357 55.63078993 -0.91927337 53.49902645 -0.87890625 51.3671875 C-0.85460816 49.89031696 -0.83076445 48.41343889 -0.80735779 46.93655396 C-0.74448579 43.04680807 -0.67542803 39.15719544 -0.60510254 35.26757812 C-0.53444718 31.29954097 -0.46961349 27.33140924 -0.40429688 23.36328125 C-0.27524439 15.57541623 -0.13966008 7.78768278 0 0 Z M14 12 C12.77709113 15.6687266 13.09038384 18.83960513 13.375 22.625 C13.41882813 23.31851563 13.46265625 24.01203125 13.5078125 24.7265625 C13.47510275 28.15664852 13.47510275 28.15664852 15 31 C17.22643462 31.12680356 19.45748777 31.17584894 21.6875 31.1875 C22.90824219 31.20167969 24.12898438 31.21585938 25.38671875 31.23046875 C30.0325231 30.93414177 33.57022649 30.01589171 37.375 27.3125 C39.709365 23.99051904 39.62709585 21.97160702 39 18 C36.8272578 15.36983839 35.05326212 13.52663106 32 12 C30.62451844 11.91691362 29.24514204 11.89263984 27.8671875 11.90234375 C27.06152344 11.90556641 26.25585938 11.90878906 25.42578125 11.91210938 C24.58402344 11.92048828 23.74226563 11.92886719 22.875 11.9375 C21.60076172 11.94426758 21.60076172 11.94426758 20.30078125 11.95117188 C18.20049091 11.96297126 16.1002367 11.98090694 14 12 Z " fill="#010101" transform="translate(62,222)"/>
<path d="M0 0 C7.81517298 -0.42354958 15.84114663 2.38697138 22.046875 7.19140625 C22.671875 9.19140625 22.671875 9.19140625 23.046875 11.19140625 C23.541875 11.64515625 24.036875 12.09890625 24.546875 12.56640625 C28.66649008 17.02932259 27.13827727 25.48384254 27.046875 31.19140625 C23.96812623 32.73078064 20.77950803 32.19437411 17.4140625 32.0703125 C16.66222687 32.04670151 15.91039124 32.02309052 15.13577271 31.99876404 C12.73094934 31.92210005 10.32644582 31.83808781 7.921875 31.75390625 C6.29298448 31.70068828 4.66407828 31.64794786 3.03515625 31.59570312 C-0.9611406 31.46648127 -4.95716592 31.33066798 -8.953125 31.19140625 C-8.33598633 32.31732178 -7.71884766 33.4432373 -7.08300781 34.60327148 C-6.56229706 35.55326271 -6.56229706 35.55326271 -6.03106689 36.52244568 C-4.08104945 39.54162718 -1.64145276 40.00234799 1.671875 40.890625 C7.45095453 41.62251501 12.31655575 39.44350073 17.046875 36.19140625 C18.08219226 37.09168213 19.09981665 38.0123366 20.109375 38.94140625 C20.67785156 39.451875 21.24632812 39.96234375 21.83203125 40.48828125 C23.046875 42.19140625 23.046875 42.19140625 22.91796875 44.33203125 C22.48677734 45.25242187 22.48677734 45.25242187 22.046875 46.19140625 C21.056875 46.52140625 20.066875 46.85140625 19.046875 47.19140625 C18.716875 48.18140625 18.386875 49.17140625 18.046875 50.19140625 C16.05078125 50.88671875 16.05078125 50.88671875 13.609375 51.31640625 C10.2195672 51.92264242 10.2195672 51.92264242 7.046875 53.19140625 C-3.54987394 52.72138916 -12.09464312 50.28688724 -19.515625 42.50390625 C-20.953125 40.19140625 -20.953125 40.19140625 -21.953125 37.19140625 C-22.448125 36.13953125 -22.448125 36.13953125 -22.953125 35.06640625 C-24.45703755 30.74265768 -26.00578393 25.48691039 -24.0234375 21.1640625 C-23.67023438 20.51308594 -23.31703125 19.86210937 -22.953125 19.19140625 C-22.62697217 17.86608683 -22.33471015 16.53193274 -22.078125 15.19140625 C-21.21540746 11.52143322 -20.04560152 9.51076364 -16.953125 7.19140625 C-16.293125 7.19140625 -15.633125 7.19140625 -14.953125 7.19140625 C-14.953125 6.53140625 -14.953125 5.87140625 -14.953125 5.19140625 C-9.92205903 2.5073388 -5.71560803 0.56012959 0 0 Z M-7.953125 15.19140625 C-8.613125 17.17140625 -9.273125 19.15140625 -9.953125 21.19140625 C-2.033125 21.19140625 5.886875 21.19140625 14.046875 21.19140625 C12.64195057 15.33889566 12.64195057 15.33889566 9.421875 12.81640625 C2.83480395 9.64485352 -2.39334995 10.16113359 -7.953125 15.19140625 Z " fill="#020202" transform="translate(144.953125,237.80859375)"/>
<path d="M0 0 C1.96789287 1.74555882 3.42730691 3.54384515 5.0625 5.625 C6.77866905 8.06031981 6.77866905 8.06031981 9 9 C9.46205166 11.36159735 9.76359077 13.61102254 10 16 C10.15662109 17.423125 10.15662109 17.423125 10.31640625 18.875 C10.91061496 24.65161128 10.91061496 24.65161128 11 27 C10 28 10 28 6.58178711 28.11352539 C5.06363012 28.11336628 3.54546771 28.10767226 2.02734375 28.09765625 C1.22970108 28.0962413 0.43205841 28.09482635 -0.38975525 28.09336853 C-2.94737435 28.08775316 -5.50490718 28.07519812 -8.0625 28.0625 C-9.79231645 28.05748698 -11.52213426 28.05292373 -13.25195312 28.04882812 C-17.50133553 28.03777875 -21.75065312 28.02050386 -26 28 C-25.38874268 29.12575439 -24.77748535 30.25150879 -24.14770508 31.41137695 C-23.80387283 32.0446138 -23.46004059 32.67785065 -23.10578918 33.33027649 C-21.45076118 35.8293416 -19.88377891 36.36343251 -17 37 C-13.94511017 37.3504345 -13.94511017 37.3504345 -10.8125 37.3125 C-9.76707031 37.32925781 -8.72164063 37.34601563 -7.64453125 37.36328125 C-6.77183594 37.24339844 -5.89914062 37.12351562 -5 37 C-4.34 36.01 -3.68 35.02 -3 34 C-0.23723823 34.52268466 2.3260876 35.10869587 5 36 C5.33 36.99 5.66 37.98 6 39 C6.66 39.66 7.32 40.32 8 41 C4.63810961 46.51634128 -0.96836469 48.09865517 -7.00341797 49.64208984 C-14.65698237 51.01407877 -22.65917771 49.2971324 -29.1875 45.1875 C-32.28037672 42.80073287 -34.88160682 40.31574584 -37 37 C-37 36.34 -37 35.68 -37 35 C-37.66 34.67 -38.32 34.34 -39 34 C-40.63560419 26.87044326 -41.202466 18.60739799 -38.875 11.625 C-34.01643727 4.82301217 -29.78240744 -0.78476516 -21.26953125 -2.6484375 C-13.8568691 -3.79669842 -6.80162998 -3.3799511 0 0 Z M-19 8 C-19.99 9.485 -19.99 9.485 -21 11 C-21.66 10.67 -22.32 10.34 -23 10 C-25.2013866 13.80427492 -25.2013866 13.80427492 -26 18 C-18.08 18 -10.16 18 -2 18 C-2.66 17.67 -3.32 17.34 -4 17 C-3.67 16.01 -3.34 15.02 -3 14 C-7.88360336 8.90125762 -7.88360336 8.90125762 -14.5 7.75 C-15.2940625 7.72421875 -16.088125 7.6984375 -16.90625 7.671875 C-17.94265625 7.83429688 -17.94265625 7.83429688 -19 8 Z " fill="#020202" transform="translate(266,241)"/>
<path d="M0 0 C1.65831855 0.67515495 3.30135498 1.39047154 4.91796875 2.16015625 C6.94022186 3.10311697 8.82814275 3.66517102 11.00390625 4.1328125 C10.67390625 5.7828125 10.34390625 7.4328125 10.00390625 9.1328125 C9.34390625 9.1328125 8.68390625 9.1328125 8.00390625 9.1328125 C7.67390625 10.7828125 7.34390625 12.4328125 7.00390625 14.1328125 C3.25390625 15.2578125 3.25390625 15.2578125 1.00390625 14.1328125 C1.00390625 13.4728125 1.00390625 12.8128125 1.00390625 12.1328125 C-4.04611597 11.09691051 -8.87025764 11.03029578 -13.99609375 11.1328125 C-13.99609375 12.1228125 -13.99609375 13.1128125 -13.99609375 14.1328125 C-14.98609375 14.1328125 -15.97609375 14.1328125 -16.99609375 14.1328125 C-15.68408202 15.69531059 -15.68408202 15.69531059 -13.99609375 17.1328125 C-13.00609375 17.1328125 -12.01609375 17.1328125 -10.99609375 17.1328125 C-10.99609375 17.7928125 -10.99609375 18.4528125 -10.99609375 19.1328125 C-9.29453125 19.0090625 -9.29453125 19.0090625 -7.55859375 18.8828125 C-1.00304881 18.89443581 4.13730626 21.4995375 9.00390625 25.7578125 C13.28345874 30.83978108 12.16218664 36.23100543 11.81640625 42.5703125 C11.54828125 43.4159375 11.28015625 44.2615625 11.00390625 45.1328125 C8.81640625 46.2578125 8.81640625 46.2578125 6.00390625 47.1328125 C5.10285156 47.80183594 4.20179688 48.47085938 3.2734375 49.16015625 C-4.75939025 54.00672497 -16.00795371 51.29187486 -24.703125 49.1796875 C-26.99609375 48.1328125 -26.99609375 48.1328125 -28.3203125 46.0234375 C-28.54332031 45.39953125 -28.76632813 44.775625 -28.99609375 44.1328125 C-29.65609375 44.1328125 -30.31609375 44.1328125 -30.99609375 44.1328125 C-29.24609375 38.3828125 -29.24609375 38.3828125 -26.99609375 36.1328125 C-25.67862051 35.43532667 -24.34695182 34.76321293 -22.99609375 34.1328125 C-22.39796875 34.7928125 -21.79984375 35.4528125 -21.18359375 36.1328125 C-19.12107541 38.4701971 -19.12107541 38.4701971 -15.99609375 38.1328125 C-15.99609375 38.7928125 -15.99609375 39.4528125 -15.99609375 40.1328125 C-8.77577169 40.4322112 -8.77577169 40.4322112 -1.99609375 38.1328125 C-2.50213367 35.96406998 -2.99593188 34.13313623 -3.99609375 32.1328125 C-6.07488653 31.92834108 -8.15399207 31.72666547 -10.234375 31.5390625 C-15.30719792 30.7928481 -20.3551083 29.31769201 -24.99609375 27.1328125 C-25.32609375 26.1428125 -25.65609375 25.1528125 -25.99609375 24.1328125 C-26.65609375 23.8028125 -27.31609375 23.4728125 -27.99609375 23.1328125 C-27.99609375 22.1428125 -27.99609375 21.1528125 -27.99609375 20.1328125 C-28.65609375 20.1328125 -29.31609375 20.1328125 -29.99609375 20.1328125 C-30.78258407 11.13186777 -30.78258407 11.13186777 -27.68359375 7.1953125 C-26.79671875 6.5146875 -25.90984375 5.8340625 -24.99609375 5.1328125 C-24.50109375 4.5965625 -24.00609375 4.0603125 -23.49609375 3.5078125 C-16.96591854 -2.47818145 -8.22519944 -2.38069658 0 0 Z " fill="#020202" transform="translate(207.99609375,238.8671875)"/>
<path d="M0 0 C0 1.98 0 3.96 0 6 C0.639375 6.226875 1.27875 6.45375 1.9375 6.6875 C4 8 4 8 4.75 10.625 C4.87375 11.800625 4.87375 11.800625 5 13 C9.37628993 8.86683729 13.07248878 4.78253365 15 -1 C19.62 -1.33 24.24 -1.66 29 -2 C29.66 -1.01 30.32 -0.02 31 1 C28.96690406 5.60121712 26.63485166 8.55155099 23 12 C21.06201737 14.77260299 21.06201737 14.77260299 20 17 C19 18 18 19 17 20 C16.34 20.99 15.68 21.98 15 23 C18.1156877 28.96044604 22.0543317 34.13274575 26.171875 39.42578125 C28 42 28 42 28 44 C28.99 44.33 29.98 44.66 31 45 C31.495 47.475 31.495 47.475 32 50 C19.10656441 50.86083769 19.10656441 50.86083769 15.1875 47.625 C13 45 13 45 13 43 C12.34 42.34 11.68 41.68 11 41 C9.64837492 39.01231606 8.31306433 37.0133653 7 35 C4.19101065 36.40449468 2.90136545 38.5224632 1 41 C0.4225 41.70125 -0.155 42.4025 -0.75 43.125 C-2.2773501 45.04044689 -2.2773501 45.04044689 -2 48 C-5.70129297 49.69895415 -8.62166396 50.27218737 -12.6875 50.25 C-14.11642578 50.25773437 -14.11642578 50.25773437 -15.57421875 50.265625 C-18 50 -18 50 -20 48 C-19.05068075 46.57602113 -18.1008721 45.15236579 -17.1484375 43.73046875 C-16.04025731 42.06065982 -14.95711086 40.37431987 -13.875 38.6875 C-12 36 -12 36 -10 35 C-8.95499149 33.38004108 -8.95499149 33.38004108 -8 31.5 C-6.22222222 28.11111111 -6.22222222 28.11111111 -4 27 C-3.34444881 24.47266765 -3.34444881 24.47266765 -3 22 C-3.66 21.67 -4.32 21.34 -5 21 C-5 20.01 -5 19.02 -5 18 C-5.66 18 -6.32 18 -7 18 C-8.3671875 15.98828125 -8.3671875 15.98828125 -9.875 13.3125 C-13.41187022 6.68176293 -13.41187022 6.68176293 -19 2 C-18.67 1.01 -18.34 0.02 -18 -1 C-5.33029613 -2.51708428 -5.33029613 -2.51708428 0 0 Z " fill="#030303" transform="translate(417,240)"/>
<path d="M0 0 C1.20864937 2.62903293 2.23021657 5.15678779 3.1875 7.875 C3.46013672 8.60847656 3.73277344 9.34195313 4.01367188 10.09765625 C5.13288046 13.17758363 6 15.69918458 6 19 C6.66 19 7.32 19 8 19 C8.144375 19.78375 8.28875 20.5675 8.4375 21.375 C8.87798925 23.96421018 8.87798925 23.96421018 10 26 C10.66 26.33 11.32 26.66 12 27 C11.67 27.66 11.34 28.32 11 29 C11.39938767 31.09821215 11.39938767 31.09821215 12 33 C12.64995297 31.58521865 13.29478722 30.16808513 13.9375 28.75 C14.29714844 27.96109375 14.65679687 27.1721875 15.02734375 26.359375 C15.90765555 24.22400018 16.48221095 22.24375254 17 20 C17.51246442 18.247531 18.03362512 16.49758654 18.5625 14.75 C18.83191406 13.85796875 19.10132813 12.9659375 19.37890625 12.046875 C19.58386719 11.37140625 19.78882813 10.6959375 20 10 C20.66 10 21.32 10 22 10 C22.33 7.36 22.66 4.72 23 2 C23.66 2 24.32 2 25 2 C25 1.34 25 0.68 25 0 C30.94 -0.495 30.94 -0.495 37 -1 C37.66 1.31 38.32 3.62 39 6 C38.53722656 6.41765625 38.07445312 6.8353125 37.59765625 7.265625 C35.91709583 9.08999866 35.25036739 10.42752174 34.4375 12.75 C34.19128906 13.44996094 33.94507813 14.14992187 33.69140625 14.87109375 C32.71038998 17.89173708 31.84064154 20.93766294 31 24 C30.505 25.485 30.505 25.485 30 27 C29.34 27 28.68 27 28 27 C27.51787786 28.56159059 27.03944127 30.12431928 26.5625 31.6875 C26.29566406 32.55761719 26.02882813 33.42773438 25.75390625 34.32421875 C24.96033393 36.98622172 24.96033393 36.98622172 24.49609375 39.70703125 C23.9056266 42.4361983 22.66021542 43.78637944 21 46 C20.62502278 47.65779401 20.2865714 49.32465952 20 51 C17.56183415 51.0809723 15.12635616 51.14046972 12.6875 51.1875 C11.99720703 51.21263672 11.30691406 51.23777344 10.59570312 51.26367188 C5.44325817 51.33834499 5.44325817 51.33834499 3.01953125 49.48828125 C2.68308594 48.99714844 2.34664063 48.50601563 2 48 C2.33 47.01 2.66 46.02 3 45 C2.08839752 42.12380571 2.08839752 42.12380571 0.6875 39.0625 C0.23761719 38.02222656 -0.21226562 36.98195313 -0.67578125 35.91015625 C-1.4498362 34.20906203 -2.24585018 32.51707999 -3.09375 30.8515625 C-4.33197691 28.32173684 -5.07688658 25.65643862 -5.9375 22.98046875 C-7.64500287 18.19067209 -9.65745407 13.52465895 -11.6628418 8.8527832 C-14 3.32011054 -14 3.32011054 -14 0 C-12.2300132 -0.19532961 -10.45895721 -0.38098882 -8.6875 -0.5625 C-7.70136719 -0.66691406 -6.71523438 -0.77132812 -5.69921875 -0.87890625 C-3 -1 -3 -1 0 0 Z " fill="#020202" transform="translate(332,239)"/>
<path d="M0 0 C0.66 0 1.32 0 2 0 C2 1.65 2 3.3 2 5 C1.34 5 0.68 5 0 5 C0 7.97 0 10.94 0 14 C-1.216875 13.938125 -2.43375 13.87625 -3.6875 13.8125 C-7.61175635 13.79166324 -9.75982452 14.71281731 -13 17 C-13.66 17 -14.32 17 -15 17 C-16.53297297 20.06594594 -16.12131455 23.27111853 -16.09765625 26.6328125 C-16.09553383 27.76056595 -16.09553383 27.76056595 -16.09336853 28.91110229 C-16.08776465 31.3157751 -16.07521157 33.72035527 -16.0625 36.125 C-16.0574855 37.75390491 -16.0529225 39.38281127 -16.04882812 41.01171875 C-16.03779397 45.00784827 -16.02052679 49.00390842 -16 53 C-18.14576637 53.02685938 -20.29162645 53.04633088 -22.4375 53.0625 C-23.63246094 53.07410156 -24.82742188 53.08570313 -26.05859375 53.09765625 C-29 53 -29 53 -30 52 C-30.09326716 50.43452952 -30.11745582 48.86487228 -30.11352539 47.29663086 C-30.11344986 46.29566879 -30.11337433 45.29470673 -30.11329651 44.26341248 C-30.10813522 43.1748848 -30.10297394 42.08635712 -30.09765625 40.96484375 C-30.0962413 39.85645645 -30.09482635 38.74806915 -30.09336853 37.60609436 C-30.08775033 34.04986931 -30.07519475 30.49370617 -30.0625 26.9375 C-30.05748734 24.53320403 -30.05292403 22.12890708 -30.04882812 19.72460938 C-30.03777499 13.81638496 -30.02101917 7.9081969 -30 2 C-26.79984144 0.93328048 -25.11455706 1.05154528 -21.8125 1.4375 C-20.46091797 1.59025391 -20.46091797 1.59025391 -19.08203125 1.74609375 C-18.39496094 1.82988281 -17.70789063 1.91367188 -17 2 C-16.67 2.99 -16.34 3.98 -16 5 C-15.5153125 4.71125 -15.030625 4.4225 -14.53125 4.125 C-9.37898353 1.27143703 -5.87035937 0.58068862 0 1 C0 0.67 0 0.34 0 0 Z " fill="#010101" transform="translate(315,237)"/>
<path d="M0 0 C0.33 0.66 0.66 1.32 1 2 C3.97 1.34 6.94 0.68 10 0 C11.12962963 4.51851852 11.12962963 4.51851852 10.53515625 6.7265625 C9.79258296 9.88114394 9.86824337 12.88857245 9.875 16.125 C9.87242187 17.36507812 9.86984375 18.60515625 9.8671875 19.8828125 C9.78331189 22.90723573 9.78331189 22.90723573 11 25 C11.13415472 27.6723621 11.04318541 30.32250488 11 33 C10.34 33 9.68 33 9 33 C9.33 33.99 9.66 34.98 10 36 C10.06898169 37.83215356 10.08467723 39.66668243 10.0625 41.5 C10.05347656 42.4590625 10.04445313 43.418125 10.03515625 44.40625 C10.02355469 45.2621875 10.01195312 46.118125 10 47 C10 47.99 10 48.98 10 50 C9.67 50.99 9.34 51.98 9 53 C2.07 52.505 2.07 52.505 -5 52 C-5.0740655 45.21901858 -5.12856234 38.43827175 -5.16479492 31.65698242 C-5.17989676 29.34932352 -5.20037969 27.04169339 -5.22631836 24.73413086 C-5.26263975 21.42033801 -5.27971236 18.10692408 -5.29296875 14.79296875 C-5.30845261 13.7585112 -5.32393646 12.72405365 -5.33988953 11.6582489 C-5.34011612 10.6974794 -5.34034271 9.7367099 -5.34057617 8.74682617 C-5.34723801 7.90077316 -5.35389984 7.05472015 -5.36076355 6.18302917 C-4.91725819 3.49931811 -4.10688232 2.66297787 -2 1 C-1.34 0.67 -0.68 0.34 0 0 Z M9 25 C10 28 10 28 10 28 Z " fill="#010101" transform="translate(382,237)"/>
<path d="M0 0 C5.48882717 0.22403376 8.52755406 1.48350358 12.5546875 5.2578125 C16.07820127 9.50507505 16.37055371 14.68873019 16 20 C15.67 20.66 15.34 21.32 15 22 C10.23835076 23.12988287 8.10875084 23.51331057 3.625 21.4375 C-1.19559961 16.96122893 -1.31818528 11.51133395 -2.046875 5.26953125 C-2 3 -2 3 0 0 Z " fill="#13A636" transform="translate(376,214)"/>
<path d="M0 0 C0.66 0 1.32 0 2 0 C2.33 1.32 2.66 2.64 3 4 C2.34 4 1.68 4 1 4 C1.47859241 5.60433809 1.95789558 7.20846416 2.4375 8.8125 C2.83775391 10.15248047 2.83775391 10.15248047 3.24609375 11.51953125 C3.80387873 13.35473055 4.39344575 15.18033726 5 17 C7.10584438 17.80563638 7.10584438 17.80563638 9.5625 18.1875 C10.80193359 18.42533203 10.80193359 18.42533203 12.06640625 18.66796875 C13.02353516 18.83232422 13.02353516 18.83232422 14 19 C14.04254356 17.00045254 14.04080783 14.99958364 14 13 C13.67 12.67 13.34 12.34 13 12 C12.95907063 9.66702567 12.95758277 7.33294775 13 5 C15 6 15 6 16.125 9.1875 C17.94382022 17.11235955 17.94382022 17.11235955 16 21 C11.23835076 22.12988287 9.10875084 22.51331057 4.625 20.4375 C-0.23495992 15.92468008 -0.31019054 10.46677976 -0.94921875 4.171875 C-1 2 -1 2 0 0 Z " fill="#2F7B3C" transform="translate(375,215)"/>
<path d="M0 0 C5.17980188 0.40625897 8.46588175 1.03750377 12 5 C12.3125 8.25 12.3125 8.25 12 11 C11.67 10.01 11.34 9.02 11 8 C9.6696875 8.2784375 9.6696875 8.2784375 8.3125 8.5625 C5.14821189 8.98042484 3.05160358 8.80777742 0 8 C0 7.01 0 6.02 0 5 C0.66 5 1.32 5 2 5 C1.34 3.35 0.68 1.7 0 0 Z " fill="#2AB03D" transform="translate(376,214)"/>
<path d="M0 0 C2 1 2 1 3.125 4.1875 C4.94382022 12.11235955 4.94382022 12.11235955 3 16 C0.35139573 16.59355614 -2.29197322 16.74209269 -5 17 C-5 16.34 -5 15.68 -5 15 C-3.02 14.67 -1.04 14.34 1 14 C1.04254356 12.00045254 1.04080783 9.99958364 1 8 C0.67 7.67 0.34 7.34 0 7 C-0.04092937 4.66702567 -0.04241723 2.33294775 0 0 Z " fill="#144D23" transform="translate(388,220)"/>
<path d="M0 0 C6.4 0.49230769 6.4 0.49230769 9.4375 3.0625 C10.2109375 4.0215625 10.2109375 4.0215625 11 5 C8 6 8 6 4.375 4.75 C1 3 1 3 0 0 Z " fill="#439155" transform="translate(376,214)"/>
<path d="M0 0 C2.375 0.1875 2.375 0.1875 5 1 C6.59660706 3.88909849 7 5.69058796 7 9 C5.68 8.67 4.36 8.34 3 8 C3 6.68 3 5.36 3 4 C2.34 4 1.68 4 1 4 C0.67 2.68 0.34 1.36 0 0 Z " fill="#08B329" transform="translate(379,222)"/>
<path d="M0 0 C0.66 0 1.32 0 2 0 C2.33 1.32 2.66 2.64 3 4 C3.66 4 4.32 4 5 4 C5 4.66 5 5.32 5 6 C5.66 6.33 6.32 6.66 7 7 C5.35 7.33 3.7 7.66 2 8 C0.74335022 5.09399739 0 3.20395416 0 0 Z " fill="#1EB134" transform="translate(377,222)"/>
<path d="M0 0 C0.33 0.66 0.66 1.32 1 2 C3.52733235 2.65555119 3.52733235 2.65555119 6 3 C2.86501708 4.85776765 0.62528568 5.20140476 -3 5 C-2.625 3.0625 -2.625 3.0625 -2 1 C-1.34 0.67 -0.68 0.34 0 0 Z " fill="#070F0D" transform="translate(382,237)"/>
<path d="M0 0 C0.66 0 1.32 0 2 0 C2 0.66 2 1.32 2 2 C5.465 1.505 5.465 1.505 9 1 C9 2.32 9 3.64 9 5 C5.87709365 4.51421457 3.00419641 4.0013988 0 3 C0 2.01 0 1.02 0 0 Z " fill="#29A344" transform="translate(380,229)"/>
<path d="M0 0 C0.99 0.495 0.99 0.495 2 1 C3.1577506 4.47325181 3.06866652 7.36067448 3 11 C0.39665076 8.28817788 0.00543309 7.10866187 -0.1875 3.25 C-0.125625 2.1775 -0.06375 1.105 0 0 Z " fill="#176D2B" transform="translate(388,220)"/>
<path d="M0 0 C2.31 0 4.62 0 7 0 C7 1.98 7 3.96 7 6 C6.67 5.01 6.34 4.02 6 3 C3.03 2.505 3.03 2.505 0 2 C0 1.34 0 0.68 0 0 Z " fill="#2E9C43" transform="translate(381,219)"/>
<path d="M0 0 C3 1 3 1 3 1 Z " fill="#000000" transform="translate(245,276)"/>
<path d="M0 0 C0.66 0 1.32 0 2 0 C1.67 0.66 1.34 1.32 1 2 C0.67 1.34 0.34 0.68 0 0 Z " fill="#000000" transform="translate(258,252)"/>
<path d="M0 0 C0.66 0.66 1.32 1.32 2 2 C1.34 2 0.68 2 0 2 C0 1.34 0 0.68 0 0 Z " fill="#000000" transform="translate(316,243)"/>
<path d="" fill="#000000" transform="translate(0,0)"/>
<path d="M0 0 C2 1 2 1 2 1 Z " fill="#000000" transform="translate(215,285)"/>
<path d="M0 0 C2 1 2 1 2 1 Z " fill="#000000" transform="translate(189,276)"/>
<path d="" fill="#000000" transform="translate(0,0)"/>
<path d="M0 0 C2 1 2 1 2 1 Z " fill="#000000" transform="translate(187,275)"/>
<path d="" fill="#000000" transform="translate(0,0)"/>
<path d="" fill="#000000" transform="translate(0,0)"/>
<path d="" fill="#000000" transform="translate(0,0)"/>
<path d="M0 0 C2 1 2 1 2 1 Z " fill="#000000" transform="translate(155,257)"/>
<path d="" fill="#000000" transform="translate(0,0)"/>
<path d="M0 0 C2 1 2 1 2 1 Z " fill="#000000" transform="translate(192,254)"/>
<path d="M0 0 C2 1 2 1 2 1 Z " fill="#000000" transform="translate(78,251)"/>
<path d="" fill="#000000" transform="translate(0,0)"/>
<path d="" fill="#000000" transform="translate(0,0)"/>
<path d="M0 0 C2 1 2 1 2 1 Z " fill="#000000" transform="translate(215,241)"/>
<path d="" fill="#000000" transform="translate(0,0)"/>
<path d="" fill="#000000" transform="translate(0,0)"/>
<path d="" fill="#000000" transform="translate(0,0)"/>
<path d="" fill="#000000" transform="translate(0,0)"/>
<path d="" fill="#000000" transform="translate(0,0)"/>
<path d="" fill="#000000" transform="translate(0,0)"/>
<path d="" fill="#000000" transform="translate(0,0)"/>
<path d="" fill="#000000" transform="translate(0,0)"/>
<path d="" fill="#000000" transform="translate(0,0)"/>
<path d="" fill="#000000" transform="translate(0,0)"/>
<path d="" fill="#000000" transform="translate(0,0)"/>
<path d="" fill="#000000" transform="translate(0,0)"/>
<path d="" fill="#000000" transform="translate(0,0)"/>
<path d="" fill="#000000" transform="translate(0,0)"/>
<path d="" fill="#000000" transform="translate(0,0)"/>
<path d="" fill="#000000" transform="translate(0,0)"/>
<path d="" fill="#000000" transform="translate(0,0)"/>
<path d="" fill="#000000" transform="translate(0,0)"/>
<path d="" fill="#000000" transform="translate(0,0)"/>
<path d="" fill="#000000" transform="translate(0,0)"/>
<path d="" fill="#000000" transform="translate(0,0)"/>
<path d="" fill="#000000" transform="translate(0,0)"/>
<path d="" fill="#000000" transform="translate(0,0)"/>
<path d="" fill="#000000" transform="translate(0,0)"/>
<path d="" fill="#000000" transform="translate(0,0)"/>
<path d="" fill="#000000" transform="translate(0,0)"/>
<path d="" fill="#000000" transform="translate(0,0)"/>
<path d="" fill="#000000" transform="translate(0,0)"/>
<path d="" fill="#000000" transform="translate(0,0)"/>
<path d="" fill="#000000" transform="translate(0,0)"/>
<path d="" fill="#000000" transform="translate(0,0)"/>
<path d="" fill="#000000" transform="translate(0,0)"/>
<path d="" fill="#000000" transform="translate(0,0)"/>
<path d="" fill="#000000" transform="translate(0,0)"/>
<path d="" fill="#000000" transform="translate(0,0)"/>
<path d="" fill="#000000" transform="translate(0,0)"/>
<path d="" fill="#000000" transform="translate(0,0)"/>
<path d="" fill="#000000" transform="translate(0,0)"/>
<path d="" fill="#000000" transform="translate(0,0)"/>
<path d="" fill="#000000" transform="translate(0,0)"/>
<path d="" fill="#000000" transform="translate(0,0)"/>
<path d="" fill="#000000" transform="translate(0,0)"/>
<path d="" fill="#000000" transform="translate(0,0)"/>
<path d="" fill="#000000" transform="translate(0,0)"/>
<path d="" fill="#000000" transform="translate(0,0)"/>
<path d="" fill="#000000" transform="translate(0,0)"/>
<path d="" fill="#000000" transform="translate(0,0)"/>
<path d="" fill="#000000" transform="translate(0,0)"/>
<path d="" fill="#000000" transform="translate(0,0)"/>
<path d="" fill="#000000" transform="translate(0,0)"/>
<path d="" fill="#000000" transform="translate(0,0)"/>
<path d="" fill="#000000" transform="translate(0,0)"/>
<path d="" fill="#000000" transform="translate(0,0)"/>
<path d="" fill="#000000" transform="translate(0,0)"/>
<path d="" fill="#000000" transform="translate(0,0)"/>
<path d="" fill="#000000" transform="translate(0,0)"/>
<path d="" fill="#000000" transform="translate(0,0)"/>
<path d="" fill="#000000" transform="translate(0,0)"/>
<path d="" fill="#000000" transform="translate(0,0)"/>
<path d="" fill="#000000" transform="translate(0,0)"/>
<path d="" fill="#000000" transform="translate(0,0)"/>
<path d="" fill="#000000" transform="translate(0,0)"/>
<path d="" fill="#000000" transform="translate(0,0)"/>
<path d="" fill="#000000" transform="translate(0,0)"/>
<path d="" fill="#000000" transform="translate(0,0)"/>
<path d="" fill="#000000" transform="translate(0,0)"/>
<path d="" fill="#000000" transform="translate(0,0)"/>
<path d="" fill="#000000" transform="translate(0,0)"/>
<path d="" fill="#000000" transform="translate(0,0)"/>
<path d="" fill="#000000" transform="translate(0,0)"/>
<path d="" fill="#000000" transform="translate(0,0)"/>
<path d="" fill="#000000" transform="translate(0,0)"/>
<path d="" fill="#000000" transform="translate(0,0)"/>
<path d="" fill="#000000" transform="translate(0,0)"/>
<path d="" fill="#000000" transform="translate(0,0)"/>
<path d="" fill="#000000" transform="translate(0,0)"/>
<path d="" fill="#000000" transform="translate(0,0)"/>
<path d="" fill="#000000" transform="translate(0,0)"/>
<path d="" fill="#0B0B0B" transform="translate(0,0)"/>
<path d="" fill="#000000" transform="translate(0,0)"/>
<path d="" fill="#000000" transform="translate(0,0)"/>
<path d="" fill="#000000" transform="translate(0,0)"/>
<path d="" fill="#000000" transform="translate(0,0)"/>
<path d="" fill="#000000" transform="translate(0,0)"/>
<path d="" fill="#000000" transform="translate(0,0)"/>
<path d="" fill="#000000" transform="translate(0,0)"/>
<path d="" fill="#000000" transform="translate(0,0)"/>
<path d="" fill="#000000" transform="translate(0,0)"/>
<path d="" fill="#000000" transform="translate(0,0)"/>
<path d="" fill="#000000" transform="translate(0,0)"/>
<path d="" fill="#000000" transform="translate(0,0)"/>
<path d="" fill="#000000" transform="translate(0,0)"/>
<path d="" fill="#000000" transform="translate(0,0)"/>
<path d="" fill="#000000" transform="translate(0,0)"/>
<path d="" fill="#000000" transform="translate(0,0)"/>
<path d="" fill="#000000" transform="translate(0,0)"/>
<path d="" fill="#000000" transform="translate(0,0)"/>
<path d="" fill="#000000" transform="translate(0,0)"/>
</svg>
