<?xml version="1.0" encoding="UTF-8"?>
<!-- Generator: visioncortex VTracer 0.6.4 -->
<svg version="1.1" xmlns="http://www.w3.org/2000/svg" width="500" height="500">
<path d="M0 0 C165 0 330 0 500 0 C500 165 500 330 500 500 C335 500 170 500 0 500 C0 335 0 170 0 0 Z " fill="#FEFEFE" transform="translate(0,0)"/>
<path d="M0 0 C5.424375 -0.0825 10.84875 -0.165 16.4375 -0.25 C18.97715454 -0.30462402 18.97715454 -0.30462402 21.56811523 -0.36035156 C29.3837762 -0.45792047 36.20510693 -0.3432428 43 4 C43.94875 4.598125 44.8975 5.19625 45.875 5.8125 C50.40031413 10.4709116 51.19537562 14.76002704 51.375 21.0625 C51.19459966 27.35298149 49.87437884 30.92831812 45.625 35.625 C43.15552685 37.85928523 40.60880541 39.93215089 38 42 C38.35304199 42.58491211 38.70608398 43.16982422 39.06982422 43.77246094 C40.67310232 46.43070763 42.27407317 49.09033666 43.875 51.75 C44.43058594 52.67039062 44.98617187 53.59078125 45.55859375 54.5390625 C46.09355469 55.42851562 46.62851563 56.31796875 47.1796875 57.234375 C47.67194824 58.05131836 48.16420898 58.86826172 48.67138672 59.70996094 C49.86180384 61.7618008 50.93913811 63.87827622 52 66 C47.05 66 42.1 66 37 66 C36.20078125 64.35128906 35.4015625 62.70257813 34.578125 61.00390625 C33.47111264 58.85555176 32.3616057 56.7084814 31.25 54.5625 C30.73050781 53.47388672 30.21101563 52.38527344 29.67578125 51.26367188 C27.99629965 48.09241544 26.52397771 45.55801012 24 43 C19.69988058 41.70097765 16.57074916 41.81652627 12 42 C12 49.92 12 57.84 12 66 C8.04 66 4.08 66 0 66 C0 44.22 0 22.44 0 0 Z " fill="#070707" transform="translate(63,222)"/>
<path d="M0 0 C5.26861363 3.23788461 9.15090603 6.75959868 11.375 12.625 C12.5 17.375 12.5 17.375 12.5 27.375 C0.29 27.375 -11.92 27.375 -24.5 27.375 C-23.51 29.355 -22.52 31.335 -21.5 33.375 C-21.5 34.035 -21.5 34.695 -21.5 35.375 C-20.88125 35.684375 -20.2625 35.99375 -19.625 36.3125 C-18.25 37 -16.875 37.6875 -15.5 38.375 C-9.21386852 39.08773981 -4.55455011 38.47276728 0.90625 35.25 C2.5 34.375 2.5 34.375 4.5 34.375 C4.933125 35.3340625 4.933125 35.3340625 5.375 36.3125 C6.32823451 38.52706079 6.32823451 38.52706079 8.5 39.375 C8.375 41.125 8.375 41.125 7.5 43.375 C-0.15508758 49.46427421 -9.11615097 49.2035534 -18.5 48.375 C-25.99444181 46.28125255 -30.6902719 42.06200526 -34.5 35.375 C-37.8494459 28.52386065 -37.46418607 20.30482538 -35.0625 13.1875 C-32.26154865 6.91536965 -27.23629878 2.26789309 -21.140625 -0.8203125 C-14.60730243 -2.81123624 -6.26468573 -2.90817133 0 0 Z " fill="#080808" transform="translate(158.5,240.625)"/>
<path d="M0 0 C3.66883418 2.11343846 6.20165489 4.14571402 8.4375 7.8125 C9.015 8.6375 9.5925 9.4625 10.1875 10.3125 C11.4375 13.8125 11.4375 13.8125 11.4375 26.8125 C-0.4425 26.8125 -12.3225 26.8125 -24.5625 26.8125 C-21.94297392 33.9024666 -21.94297392 33.9024666 -16.5625 37.8125 C-9.40073928 38.81605883 -3.17663708 37.55614205 3.4375 34.8125 C5.14634005 36.43589805 6.81196717 38.10569053 8.4375 39.8125 C8.4375 40.4725 8.4375 41.1325 8.4375 41.8125 C6.828125 43.06640625 6.828125 43.06640625 4.6875 44.375 C3.99140625 44.80941406 3.2953125 45.24382812 2.578125 45.69140625 C-4.26201381 49.27374172 -14.80750362 48.99060358 -22.1796875 47.1640625 C-28.31672381 44.37015881 -32.71206368 39.22237149 -35.4375 33.125 C-37.68290655 26.18709713 -37.64454137 18.62997895 -34.875 11.875 C-28.1479361 -1.20146807 -13.32540886 -6.32560331 0 0 Z " fill="#070707" transform="translate(263.5625,241.1875)"/>
<path d="M0 0 C2.14453125 1.16796875 2.14453125 1.16796875 4.14453125 4.16796875 C2.49453125 6.47796875 0.84453125 8.78796875 -0.85546875 11.16796875 C-1.92474609 10.73484375 -1.92474609 10.73484375 -3.015625 10.29296875 C-11.99426577 6.70098397 -11.99426577 6.70098397 -21.29296875 8.16796875 C-21.80859375 8.49796875 -22.32421875 8.82796875 -22.85546875 9.16796875 C-22.52546875 10.81796875 -22.19546875 12.46796875 -21.85546875 14.16796875 C-21.27579346 14.33401611 -20.69611816 14.50006348 -20.09887695 14.67114258 C-17.4530543 15.43355205 -14.81054836 16.206897 -12.16796875 16.98046875 C-11.25595703 17.24150391 -10.34394531 17.50253906 -9.40429688 17.77148438 C1.73403917 21.05223063 1.73403917 21.05223063 5.14453125 26.16796875 C5.85333973 31.41809666 5.76972467 35.87127128 3.45703125 40.66796875 C-0.98057928 45.46538554 -5.04423687 46.98055329 -11.4296875 47.40625 C-21.10644631 47.66235458 -27.66497556 46.62829755 -35.85546875 41.16796875 C-34.54322327 37.23123231 -32.93636548 34.94077581 -29.85546875 32.16796875 C-28.94796875 32.80734375 -28.04046875 33.44671875 -27.10546875 34.10546875 C-23.05055426 36.67877987 -20.10405523 37.31481304 -15.35546875 37.35546875 C-14.60265625 37.36964844 -13.84984375 37.38382812 -13.07421875 37.3984375 C-10.60682702 37.14214153 -8.99190619 36.39642028 -6.85546875 35.16796875 C-6.85546875 33.84796875 -6.85546875 32.52796875 -6.85546875 31.16796875 C-8.10650391 30.78705078 -8.10650391 30.78705078 -9.3828125 30.3984375 C-11.71831649 29.68414247 -14.05155713 28.96241667 -16.3828125 28.234375 C-18.42803143 27.60631564 -20.48058247 27.00012254 -22.546875 26.4453125 C-28.12483305 24.86913823 -30.81743375 23.19971422 -33.85546875 18.16796875 C-35.41434927 13.71270668 -35.19832207 10.22502793 -33.29296875 5.91796875 C-26.43736058 -6.19836652 -11.14112192 -4.25744191 0 0 Z " fill="#0A0A0A" transform="translate(213.85546875,241.83203125)"/>
<path d="M0 0 C4.82299857 -0.66224252 9.20655052 -0.96498327 14 0 C17.29613564 3.24210063 18.9742454 6.89502514 21 11 C22.55604171 12.79947366 22.55604171 12.79947366 24 14 C24.49886719 12.989375 24.99773437 11.97875 25.51171875 10.9375 C29.81858839 2.91612126 29.81858839 2.91612126 33 0 C37.5527239 -1.21202269 41.40562025 -0.89473238 46 0 C44.18647842 5.92571066 39.96677487 10.33634061 36.08007812 15.02929688 C32.80717843 19.11416421 32.80717843 19.11416421 31.875 24.140625 C33.21131876 27.53710185 34.9083564 29.96070725 37.1875 32.8125 C41.03842252 37.73995837 44.61525269 42.74368653 48 48 C43.05282253 48.9623472 38.90455385 49.2920054 34 48 C29.49273162 43.96513831 26.74197344 38.30704537 24 33 C20.55977161 36.22521411 18.24646466 39.19194662 16 43.3125 C14.24609375 45.94921875 14.24609375 45.94921875 12 48 C7.54926496 48.85891378 3.47395595 48.6054978 -1 48 C2.38907593 41.69186596 6.53156718 36.26238574 11.01757812 30.69726562 C11.54416016 30.01986328 12.07074219 29.34246094 12.61328125 28.64453125 C13.09579346 28.03971924 13.57830566 27.43490723 14.07543945 26.81176758 C15.17842652 25.04513145 15.17842652 25.04513145 14.83081055 23.03613281 C13.85915617 20.65482295 12.63284551 18.83916411 11.09375 16.77734375 C10.51496094 15.99166016 9.93617188 15.20597656 9.33984375 14.39648438 C8.73269531 13.58501953 8.12554687 12.77355469 7.5 11.9375 C6.29862287 10.3241857 5.10055217 8.70840248 3.90625 7.08984375 C3.37322266 6.37691162 2.84019531 5.66397949 2.29101562 4.92944336 C1 3 1 3 0 0 Z " fill="#070707" transform="translate(400,240)"/>
<path d="M0 0 C3.96 0 7.92 0 12 0 C15.3035526 6.27228567 17.85460715 12.64532324 20.25 19.3125 C20.61351562 20.30056641 20.97703125 21.28863281 21.3515625 22.30664062 C21.69445312 23.25345703 22.03734375 24.20027344 22.390625 25.17578125 C22.70032227 26.03083252 23.01001953 26.88588379 23.32910156 27.7668457 C24 30 24 30 24 33 C27.17657882 31.41171059 27.39277137 28.68487654 28.56640625 25.41015625 C28.80536118 24.7504332 29.0443161 24.09071014 29.29051208 23.41099548 C30.05464012 21.29720829 30.80882571 19.18003442 31.5625 17.0625 C32.32178537 14.94931974 33.08306362 12.83686987 33.84519958 10.72471619 C34.5363596 8.80606534 35.222518 6.88561497 35.90844727 4.96508789 C37 2 37 2 38 0 C41.96 0 45.92 0 50 0 C49.48247502 4.87685355 48.48141325 8.62656045 46.3046875 13.01171875 C42.88007985 20.15467654 39.98059867 27.4290703 37.125 34.8125 C36.62276601 36.10235774 36.12016331 37.39207197 35.6171875 38.68164062 C34.40785838 41.78636059 33.20340808 44.89298021 32 48 C27.71 48 23.42 48 19 48 C14.78611353 39.1110371 10.99032695 30.17600535 7.4753418 20.99438477 C6.67556558 18.90634181 5.86851565 16.821213 5.06054688 14.73632812 C1.14444959 4.57779836 1.14444959 4.57779836 0 0 Z " fill="#090909" transform="translate(319,240)"/>
<path d="M0 0 C0 3.63 0 7.26 0 11 C-2.70182292 11.09765625 -5.40364583 11.1953125 -8.10546875 11.29296875 C-12.05743149 12.25829298 -13.45483059 13.85114165 -16 17 C-16.77506771 20.56319377 -16.77506771 20.56319377 -16.70703125 24.48828125 C-16.72215256 25.19147995 -16.73727386 25.89467865 -16.75285339 26.6191864 C-16.79561495 28.85062003 -16.80455593 31.08069809 -16.8125 33.3125 C-16.83565371 34.83141595 -16.86102089 36.35029988 -16.88867188 37.86914062 C-16.95140606 41.57940133 -16.98383444 45.28921085 -17 49 C-20.63 49 -24.26 49 -28 49 C-28 33.16 -28 17.32 -28 1 C-24.37 1 -20.74 1 -17 1 C-16.67 2.32 -16.34 3.64 -16 5 C-15.5153125 4.6390625 -15.030625 4.278125 -14.53125 3.90625 C-9.39044589 0.34723177 -6.2293004 -0.55618754 0 0 Z " fill="#040404" transform="translate(314,239)"/>
<path d="M0 0 C3.63 0 7.26 0 11 0 C11 15.84 11 31.68 11 48 C7.37 48 3.74 48 0 48 C0 32.16 0 16.32 0 0 Z " fill="#030303" transform="translate(379,240)"/>
<path d="M0 0 C4.3003125 -0.061875 4.3003125 -0.061875 8.6875 -0.125 C9.58170654 -0.14320801 10.47591309 -0.16141602 11.3972168 -0.18017578 C17.0577989 -0.21953387 20.96009635 0.22850472 25.375 4.0625 C27.37373646 7.67560052 27.23020331 9.80313979 26.84765625 13.81640625 C25.53434366 17.19954791 24.18331696 18.22038185 21 20 C17.3804583 20.47618701 13.82999 20.37720583 10.1875 20.25 C9.20845703 20.23195312 8.22941406 20.21390625 7.22070312 20.1953125 C4.81337997 20.14834034 2.40656257 20.07660146 0 20 C0 13.4 0 6.8 0 0 Z " fill="#F6F6F6" transform="translate(75,233)"/>
<path d="M0 0 C3.44984294 1.33935079 6.23430974 2.93469181 8.4375 6 C9 8 9 8 9 12 C0.75 12 -7.5 12 -16 12 C-14.95298001 5.71788007 -14.62412271 4.71276407 -10.02734375 1.140625 C-6.61649948 -0.77838565 -3.77248107 -0.87284856 0 0 Z " fill="#EDEDED" transform="translate(255,248)"/>
<path d="M0 0 C3.76889103 1.41815122 6.48432074 3.3179726 8.9375 6.5625 C10 9 10 9 10 12 C1.42 12 -7.16 12 -16 12 C-14.11015122 6.33045367 -13.25049054 4.71917922 -9 1 C-5.88111322 -0.55944339 -3.4545855 -0.28316275 0 0 Z " fill="#EBEBEB" transform="translate(150,248)"/>
<path d="M0 0 C-0.33 0.99 -0.66 1.98 -1 3 C-1.66 3 -2.32 3 -3 3 C-3 4.65 -3 6.3 -3 8 C-1.02 7.34 0.96 6.68 3 6 C2.67 7.65 2.34 9.3 2 11 C-0.91969213 10.4082517 -3.83513587 9.80221445 -6.75 9.1875 C-7.575 9.02185547 -8.4 8.85621094 -9.25 8.68554688 C-16.79475636 7.07315943 -16.79475636 7.07315943 -20 4 C-19.75 1.625 -19.75 1.625 -19 -1 C-13.29619786 -5.60691711 -5.92039584 -2.49279825 0 0 Z " fill="#EEEEEE" transform="translate(210,251)"/>
<path d="M0 0 C4.96996601 1.16940377 8.23910808 2.34972254 12 6 C13.1577506 9.47325181 13.06866652 12.36067448 13 16 C6.70700637 17.21019108 6.70700637 17.21019108 3.6875 16.3125 C1.59299591 14.68344126 0.97816345 13.46869823 0 11 C-0.1953125 8.203125 -0.1953125 8.203125 -0.125 5.25 C-0.09792969 3.77273437 -0.09792969 3.77273437 -0.0703125 2.265625 C-0.04710937 1.51796875 -0.02390625 0.7703125 0 0 Z " fill="#2CAB47" transform="translate(377,217)"/>
<path d="M0 0 C4.62 0 9.24 0 14 0 C14 0.33 14 0.66 14 1 C12.02 1.66 10.04 2.32 8 3 C8 3.66 8 4.32 8 5 C9.32 5.66 10.64 6.32 12 7 C11.34 8.32 10.68 9.64 10 11 C7.32543283 10.62207203 6.19388186 10.20233084 4.296875 8.22265625 C3.78640625 7.50980469 3.2759375 6.79695312 2.75 6.0625 C2.22921875 5.35222656 1.7084375 4.64195312 1.171875 3.91015625 C0 2 0 2 0 0 Z " fill="#090A0A" transform="translate(400,240)"/>
<path d="M0 0 C0.66 0 1.32 0 2 0 C2 0.66 2 1.32 2 2 C2.99 2.33 3.98 2.66 5 3 C5.33 3.66 5.66 4.32 6 5 C6.66 4.67 7.32 4.34 8 4 C8 5.98 8 7.96 8 10 C4.71303767 10.79953138 3.28976808 11.09658936 0 10 C-0.19412181 8.52168779 -0.38012131 7.04230684 -0.5625 5.5625 C-0.66691406 4.73878906 -0.77132813 3.91507813 -0.87890625 3.06640625 C-0.91886719 2.38449219 -0.95882813 1.70257813 -1 1 C-0.67 0.67 -0.34 0.34 0 0 Z " fill="#11B82D" transform="translate(379,220)"/>
<path d="M0 0 C2.33944736 0.28730055 4.6739143 0.61936779 7 1 C3.25 2.125 3.25 2.125 1 1 C1.14183696 2.75032844 1.28863429 4.50025534 1.4375 6.25 C1.51871094 7.22453125 1.59992188 8.1990625 1.68359375 9.203125 C1.96346926 12.22771622 1.96346926 12.22771622 3 16 C7.455 16.99 7.455 16.99 12 18 C12 18.33 12 18.66 12 19 C7.53160785 19.21278058 4.17737474 18.59138085 0 17 C-0.83725216 13.35861758 -1.13509204 9.98405504 -1.125 6.25 C-1.12757813 5.28578125 -1.13015625 4.3215625 -1.1328125 3.328125 C-1 1 -1 1 0 0 Z " fill="#C2F5CF" transform="translate(376,216)"/>
<path d="M0 0 C1.65 0 3.3 0 5 0 C5 0.66 5 1.32 5 2 C5.99 2 6.98 2 8 2 C8.39012425 3.76756294 8.7616098 5.53924783 9.125 7.3125 C9.33382813 8.29863281 9.54265625 9.28476563 9.7578125 10.30078125 C10 13 10 13 8 16 C7.01 15.67 6.02 15.34 5 15 C5.66 15 6.32 15 7 15 C6.1377511 8.37226593 5.35533057 4.22789256 0 0 Z " fill="#D3F9DB" transform="translate(383,218)"/>
<path d="M0 0 C1.32 0 2.64 0 4 0 C4 0.99 4 1.98 4 3 C4.66 3.33 5.32 3.66 6 4 C5.01 5.98 4.02 7.96 3 10 C2.34 10 1.68 10 1 10 C0.63720544 8.71073008 0.28503302 7.41846728 -0.0625 6.125 C-0.35833984 5.04605469 -0.35833984 5.04605469 -0.66015625 3.9453125 C-1 2 -1 2 0 0 Z " fill="#F1F1F1" transform="translate(342,263)"/>
<path d="M0 0 C3.96 0 7.92 0 12 0 C12 0.33 12 0.66 12 1 C8.7 1.66 5.4 2.32 2 3 C1.67 9.27 1.34 15.54 1 22 C0.67 22 0.34 22 0 22 C0 14.74 0 7.48 0 0 Z " fill="#E9E9E9" transform="translate(75,264)"/>
<path d="M0 0 C4.62 0 9.24 0 14 0 C14 0.33 14 0.66 14 1 C12.02 1.66 10.04 2.32 8 3 C8 3.33 8 3.66 8 4 C6.02 4 4.04 4 2 4 C1.34 2.68 0.68 1.36 0 0 Z " fill="#1D1D1E" transform="translate(400,240)"/>
<path d="M0 0 C2.8002232 1.4001116 3.56776098 3.26572551 5 6 C5 6.99 5 7.98 5 9 C0.25 8.25 0.25 8.25 -2 6 C-1.44444444 1.44444444 -1.44444444 1.44444444 0 0 Z M0 4 C0 4.66 0 5.32 0 6 C0.66 6 1.32 6 2 6 C2 5.34 2 4.68 2 4 C1.34 4 0.68 4 0 4 Z " fill="#D4D4D4" transform="translate(192,249)"/>
<path d="M0 0 C3 2 3 2 4 5 C4.66 5.66 5.32 6.32 6 7 C0.46153846 6.50769231 0.46153846 6.50769231 -1.875 3.9375 C-2.431875 2.9784375 -2.431875 2.9784375 -3 2 C-2.01 1.34 -1.02 0.68 0 0 Z " fill="#E1E1E1" transform="translate(245,273)"/>
<path d="M0 0 C0.99 0.33 1.98 0.66 3 1 C1.1875 4 1.1875 4 -1 7 C-1.99 7 -2.98 7 -4 7 C-4.99 7.495 -4.99 7.495 -6 8 C-4.75237172 4.15314615 -3.6129609 1.97070595 0 0 Z " fill="#141414" transform="translate(187,241)"/>
<path d="M0 0 C0.33 0 0.66 0 1 0 C1 2.31 1 4.62 1 7 C-5.4 8.23076923 -5.4 8.23076923 -8.4375 7.0625 C-8.953125 6.711875 -9.46875 6.36125 -10 6 C-10 5.34 -10 4.68 -10 4 C-5.05 4.99 -5.05 4.99 0 6 C0 4.02 0 2.04 0 0 Z " fill="#48AE5F" transform="translate(389,226)"/>
<path d="M0 0 C0.66 0.33 1.32 0.66 2 1 C1 4 1 4 -1 5 C-1.680625 6.485 -1.680625 6.485 -2.375 8 C-4 11 -4 11 -6.1015625 11.6875 C-6.72804688 11.790625 -7.35453125 11.89375 -8 12 C-6.85573734 10.186508 -5.70954608 8.37423275 -4.5625 6.5625 C-3.60537109 5.04849609 -3.60537109 5.04849609 -2.62890625 3.50390625 C-1 1 -1 1 0 0 Z " fill="#1F1F1F" transform="translate(414,266)"/>
<path d="M0 0 C0.99 0.33 1.98 0.66 3 1 C3 1.66 3 2.32 3 3 C3.804375 3.12375 4.60875 3.2475 5.4375 3.375 C6.7059375 3.684375 6.7059375 3.684375 8 4 C8.33 4.66 8.66 5.32 9 6 C8.01 6.99 7.02 7.98 6 9 C4.02 6.03 2.04 3.06 0 0 Z " fill="#E0E0E0" transform="translate(417,246)"/>
<path d="M0 0 C0.66 0.33 1.32 0.66 2 1 C1.67 2.65 1.34 4.3 1 6 C-0.875 6.625 -0.875 6.625 -3 7 C-3.66 6.34 -4.32 5.68 -5 5 C-3.625 3.5 -3.625 3.5 -2 2 C-1.34 2 -0.68 2 0 2 C0 1.34 0 0.68 0 0 Z " fill="#EFEFEF" transform="translate(206,272)"/>
<path d="M0 0 C0.66 0.99 1.32 1.98 2 3 C1.34 3 0.68 3 0 3 C-0.33 4.65 -0.66 6.3 -1 8 C-1.66 8 -2.32 8 -3 8 C-3.33 8.99 -3.66 9.98 -4 11 C-4.66 10.34 -5.32 9.68 -6 9 C-4.02 6.03 -2.04 3.06 0 0 Z " fill="#E8E8E8" transform="translate(439,250)"/>
<path d="M0 0 C0.66 0.66 1.32 1.32 2 2 C3.32 1.34 4.64 0.68 6 0 C5.01 2.97 4.02 5.94 3 9 C0.23776722 6.23776722 0.42143709 3.79293383 0 0 Z " fill="#181818" transform="translate(296,242)"/>
<path d="M0 0 C0.66 0.66 1.32 1.32 2 2 C1.690625 2.7425 1.38125 3.485 1.0625 4.25 C0.1905075 6.50692176 -0.47667007 8.6450153 -1 11 C-1.99 10.67 -2.98 10.34 -4 10 C-2.68 6.7 -1.36 3.4 0 0 Z " fill="#DEDEDE" transform="translate(355,276)"/>
<path d="M0 0 C0 3 0 3 -1 5 C-2.33333333 5.66666667 -3.66666667 6.33333333 -5 7 C-5.33 7.66 -5.66 8.32 -6 9 C-6.66 8.67 -7.32 8.34 -8 8 C-7.23883449 6.84772177 -6.46567307 5.7033614 -5.6875 4.5625 C-5.25824219 3.92441406 -4.82898438 3.28632813 -4.38671875 2.62890625 C-3 1 -3 1 0 0 Z " fill="#161616" transform="translate(407,279)"/>
<path d="M0 0 C4.29 0 8.58 0 13 0 C12.67 0.66 12.34 1.32 12 2 C11.32453125 1.96519531 10.6490625 1.93039063 9.953125 1.89453125 C9.06109375 1.86746094 8.1690625 1.84039062 7.25 1.8125 C6.36828125 1.77769531 5.4865625 1.74289063 4.578125 1.70703125 C1.55328417 2.05076316 0.24416398 3.00227459 -2 5 C-1.34 3.35 -0.68 1.7 0 0 Z " fill="#2E2E2E" transform="translate(433,240)"/>
<path d="M0 0 C0.62648438 0.0721875 1.25296875 0.144375 1.8984375 0.21875 C3.12433594 0.35796875 3.12433594 0.35796875 4.375 0.5 C5.59316406 0.63921875 5.59316406 0.63921875 6.8359375 0.78125 C8.96912825 1.03352351 8.96912825 1.03352351 11 1 C10.67 2.32 10.34 3.64 10 5 C9.34 5 8.68 5 8 5 C8 4.34 8 3.68 8 3 C6.865625 2.87625 5.73125 2.7525 4.5625 2.625 C3.386875 2.41875 2.21125 2.2125 1 2 C0.67 1.34 0.34 0.68 0 0 Z " fill="#EBFCEE" transform="translate(380,215)"/>
<path d="M0 0 C2.5625 2.25 2.5625 2.25 5 5 C4.67 6.32 4.34 7.64 4 9 C1.525 5.04 1.525 5.04 -1 1 C-0.67 0.67 -0.34 0.34 0 0 Z " fill="#E1E1E1" transform="translate(439,273)"/>
<path d="M0 0 C-0.25 1.875 -0.25 1.875 -1 4 C-3.0625 5.25 -3.0625 5.25 -5 6 C-5.66 5.34 -6.32 4.68 -7 4 C-2.25 0 -2.25 0 0 0 Z " fill="#181818" transform="translate(137,241)"/>
<path d="M0 0 C0.99 0.99 1.98 1.98 3 3 C2.67 3.99 2.34 4.98 2 6 C-0.0625 6.6875 -0.0625 6.6875 -2 7 C-1.42415568 4.61435923 -0.77772405 2.33317216 0 0 Z " fill="#EEEEEE" transform="translate(425,275)"/>
<path d="M0 0 C2.0625 1.75 2.0625 1.75 4 4 C3.75 6.25 3.75 6.25 3 8 C2.566875 7.0409375 2.566875 7.0409375 2.125 6.0625 C1.17176549 3.84793921 1.17176549 3.84793921 -1 3 C-0.67 2.01 -0.34 1.02 0 0 Z " fill="#DBDBDB" transform="translate(412,258)"/>
<path d="M0 0 C0 1.98 0 3.96 0 6 C-1.65 6.33 -3.3 6.66 -5 7 C-4.39816251 4.97954558 -3.72693904 2.97888961 -3 1 C-1 0 -1 0 0 0 Z " fill="#0AA928" transform="translate(387,224)"/>
<path d="M0 0 C2 2 2 2 2 5 C0.35 5.33 -1.3 5.66 -3 6 C-3 3 -3 3 -1.5 1.3125 C-0.7575 0.6628125 -0.7575 0.6628125 0 0 Z " fill="#F5F5F5" transform="translate(412,262)"/>
</svg>
